<mxfile host="app.diagrams.net" agent="Mozilla/5.0 (Windows NT 10.0; Win64; x64) AppleWebKit/537.36 (KHTML, like Gecko) Chrome/133.0.0.0 Safari/537.36" version="26.0.13">
  <diagram name="第 1 页" id="BqFo81X97IZlTIUY5y48">
    <mxGraphModel dx="2261" dy="746" grid="1" gridSize="10" guides="1" tooltips="1" connect="1" arrows="1" fold="1" page="1" pageScale="1" pageWidth="827" pageHeight="1169" math="0" shadow="0">
      <root>
        <mxCell id="0" />
        <mxCell id="1" parent="0" />
        <mxCell id="2ZqJ3YhHnh6G0H8l9F2F-1" value="function Object () { }" style="shape=table;startSize=20;container=1;collapsible=0;childLayout=tableLayout;strokeColor=default;fontSize=16;fontColor=light-dark(#FFFFFF,#FFFFFF);" vertex="1" parent="1">
          <mxGeometry y="340" width="180" height="77" as="geometry" />
        </mxCell>
        <mxCell id="2ZqJ3YhHnh6G0H8l9F2F-2" value="" style="shape=tableRow;horizontal=0;startSize=0;swimlaneHead=0;swimlaneBody=0;strokeColor=inherit;top=0;left=0;bottom=0;right=0;collapsible=0;dropTarget=0;fillColor=none;points=[[0,0.5],[1,0.5]];portConstraint=eastwest;fontSize=16;" vertex="1" parent="2ZqJ3YhHnh6G0H8l9F2F-1">
          <mxGeometry y="20" width="180" height="57" as="geometry" />
        </mxCell>
        <mxCell id="2ZqJ3YhHnh6G0H8l9F2F-3" value="&lt;div style=&quot;font-family: Consolas, &amp;quot;Courier New&amp;quot;, monospace; font-size: 14px; line-height: 19px; white-space: pre;&quot;&gt;&lt;span style=&quot;background-color: rgb(255, 255, 255);&quot;&gt;prototype&lt;/span&gt;&lt;/div&gt;" style="shape=partialRectangle;html=1;whiteSpace=wrap;connectable=0;strokeColor=inherit;overflow=hidden;fillColor=none;top=0;left=0;bottom=0;right=0;pointerEvents=1;fontSize=16;fontColor=#1A1A1A;" vertex="1" parent="2ZqJ3YhHnh6G0H8l9F2F-2">
          <mxGeometry width="90" height="57" as="geometry">
            <mxRectangle width="90" height="57" as="alternateBounds" />
          </mxGeometry>
        </mxCell>
        <mxCell id="2ZqJ3YhHnh6G0H8l9F2F-4" value="" style="shape=partialRectangle;html=1;whiteSpace=wrap;connectable=0;strokeColor=inherit;overflow=hidden;fillColor=none;top=0;left=0;bottom=0;right=0;pointerEvents=1;fontSize=16;" vertex="1" parent="2ZqJ3YhHnh6G0H8l9F2F-2">
          <mxGeometry x="90" width="90" height="57" as="geometry">
            <mxRectangle width="90" height="57" as="alternateBounds" />
          </mxGeometry>
        </mxCell>
        <mxCell id="2ZqJ3YhHnh6G0H8l9F2F-5" value="Object函数的原型对象" style="shape=table;startSize=30;container=1;collapsible=0;childLayout=tableLayout;strokeColor=default;fontSize=16;fontColor=light-dark(#FFFFFF,#FFFFFF);" vertex="1" parent="1">
          <mxGeometry x="-20" y="80" width="390" height="217" as="geometry" />
        </mxCell>
        <mxCell id="2ZqJ3YhHnh6G0H8l9F2F-6" value="" style="shape=tableRow;horizontal=0;startSize=0;swimlaneHead=0;swimlaneBody=0;strokeColor=inherit;top=0;left=0;bottom=0;right=0;collapsible=0;dropTarget=0;fillColor=none;points=[[0,0.5],[1,0.5]];portConstraint=eastwest;fontSize=16;" vertex="1" parent="2ZqJ3YhHnh6G0H8l9F2F-5">
          <mxGeometry y="30" width="390" height="47" as="geometry" />
        </mxCell>
        <mxCell id="2ZqJ3YhHnh6G0H8l9F2F-7" value="constructor对象" style="shape=partialRectangle;html=1;whiteSpace=wrap;connectable=0;strokeColor=inherit;overflow=hidden;fillColor=none;top=0;left=0;bottom=0;right=0;pointerEvents=1;fontSize=16;fontColor=#1A1A1A;" vertex="1" parent="2ZqJ3YhHnh6G0H8l9F2F-6">
          <mxGeometry width="195" height="47" as="geometry">
            <mxRectangle width="195" height="47" as="alternateBounds" />
          </mxGeometry>
        </mxCell>
        <mxCell id="2ZqJ3YhHnh6G0H8l9F2F-8" value="" style="shape=partialRectangle;html=1;whiteSpace=wrap;connectable=0;strokeColor=inherit;overflow=hidden;fillColor=none;top=0;left=0;bottom=0;right=0;pointerEvents=1;fontSize=16;" vertex="1" parent="2ZqJ3YhHnh6G0H8l9F2F-6">
          <mxGeometry x="195" width="195" height="47" as="geometry">
            <mxRectangle width="195" height="47" as="alternateBounds" />
          </mxGeometry>
        </mxCell>
        <mxCell id="2ZqJ3YhHnh6G0H8l9F2F-9" value="" style="shape=tableRow;horizontal=0;startSize=0;swimlaneHead=0;swimlaneBody=0;strokeColor=inherit;top=0;left=0;bottom=0;right=0;collapsible=0;dropTarget=0;fillColor=none;points=[[0,0.5],[1,0.5]];portConstraint=eastwest;fontSize=16;" vertex="1" parent="2ZqJ3YhHnh6G0H8l9F2F-5">
          <mxGeometry y="77" width="390" height="46" as="geometry" />
        </mxCell>
        <mxCell id="2ZqJ3YhHnh6G0H8l9F2F-10" value="hasOwnProperty函数" style="shape=partialRectangle;html=1;whiteSpace=wrap;connectable=0;strokeColor=inherit;overflow=hidden;fillColor=none;top=0;left=0;bottom=0;right=0;pointerEvents=1;fontSize=16;" vertex="1" parent="2ZqJ3YhHnh6G0H8l9F2F-9">
          <mxGeometry width="195" height="46" as="geometry">
            <mxRectangle width="195" height="46" as="alternateBounds" />
          </mxGeometry>
        </mxCell>
        <mxCell id="2ZqJ3YhHnh6G0H8l9F2F-11" value="" style="shape=partialRectangle;html=1;whiteSpace=wrap;connectable=0;strokeColor=inherit;overflow=hidden;fillColor=none;top=0;left=0;bottom=0;right=0;pointerEvents=1;fontSize=16;" vertex="1" parent="2ZqJ3YhHnh6G0H8l9F2F-9">
          <mxGeometry x="195" width="195" height="46" as="geometry">
            <mxRectangle width="195" height="46" as="alternateBounds" />
          </mxGeometry>
        </mxCell>
        <mxCell id="2ZqJ3YhHnh6G0H8l9F2F-12" value="" style="shape=tableRow;horizontal=0;startSize=0;swimlaneHead=0;swimlaneBody=0;strokeColor=inherit;top=0;left=0;bottom=0;right=0;collapsible=0;dropTarget=0;fillColor=none;points=[[0,0.5],[1,0.5]];portConstraint=eastwest;fontSize=16;" vertex="1" parent="2ZqJ3YhHnh6G0H8l9F2F-5">
          <mxGeometry y="123" width="390" height="47" as="geometry" />
        </mxCell>
        <mxCell id="2ZqJ3YhHnh6G0H8l9F2F-13" value="toString函数" style="shape=partialRectangle;html=1;whiteSpace=wrap;connectable=0;strokeColor=inherit;overflow=hidden;fillColor=none;top=0;left=0;bottom=0;right=0;pointerEvents=1;fontSize=16;" vertex="1" parent="2ZqJ3YhHnh6G0H8l9F2F-12">
          <mxGeometry width="195" height="47" as="geometry">
            <mxRectangle width="195" height="47" as="alternateBounds" />
          </mxGeometry>
        </mxCell>
        <mxCell id="2ZqJ3YhHnh6G0H8l9F2F-14" value="" style="shape=partialRectangle;html=1;whiteSpace=wrap;connectable=0;strokeColor=inherit;overflow=hidden;fillColor=none;top=0;left=0;bottom=0;right=0;pointerEvents=1;fontSize=16;" vertex="1" parent="2ZqJ3YhHnh6G0H8l9F2F-12">
          <mxGeometry x="195" width="195" height="47" as="geometry">
            <mxRectangle width="195" height="47" as="alternateBounds" />
          </mxGeometry>
        </mxCell>
        <mxCell id="2ZqJ3YhHnh6G0H8l9F2F-25" style="shape=tableRow;horizontal=0;startSize=0;swimlaneHead=0;swimlaneBody=0;strokeColor=inherit;top=0;left=0;bottom=0;right=0;collapsible=0;dropTarget=0;fillColor=none;points=[[0,0.5],[1,0.5]];portConstraint=eastwest;fontSize=16;" vertex="1" parent="2ZqJ3YhHnh6G0H8l9F2F-5">
          <mxGeometry y="170" width="390" height="47" as="geometry" />
        </mxCell>
        <mxCell id="2ZqJ3YhHnh6G0H8l9F2F-26" value="&lt;span style=&quot;font-family: Consolas, &amp;quot;Courier New&amp;quot;, monospace; font-size: 14px; white-space: pre; background-color: light-dark(rgb(18, 18, 18), rgb(18, 18, 18));&quot;&gt;&lt;font style=&quot;color: light-dark(rgb(255, 255, 255), rgb(255, 255, 255));&quot;&gt;__proto__&lt;/font&gt;&lt;/span&gt;" style="shape=partialRectangle;html=1;whiteSpace=wrap;connectable=0;strokeColor=inherit;overflow=hidden;fillColor=none;top=0;left=0;bottom=0;right=0;pointerEvents=1;fontSize=16;" vertex="1" parent="2ZqJ3YhHnh6G0H8l9F2F-25">
          <mxGeometry width="195" height="47" as="geometry">
            <mxRectangle width="195" height="47" as="alternateBounds" />
          </mxGeometry>
        </mxCell>
        <mxCell id="2ZqJ3YhHnh6G0H8l9F2F-27" value="null" style="shape=partialRectangle;html=1;whiteSpace=wrap;connectable=0;strokeColor=inherit;overflow=hidden;fillColor=none;top=0;left=0;bottom=0;right=0;pointerEvents=1;fontSize=16;" vertex="1" parent="2ZqJ3YhHnh6G0H8l9F2F-25">
          <mxGeometry x="195" width="195" height="47" as="geometry">
            <mxRectangle width="195" height="47" as="alternateBounds" />
          </mxGeometry>
        </mxCell>
        <mxCell id="2ZqJ3YhHnh6G0H8l9F2F-16" value="" style="edgeStyle=elbowEdgeStyle;elbow=horizontal;endArrow=classic;html=1;curved=0;rounded=0;endSize=8;startSize=8;entryX=1;entryY=0.5;entryDx=0;entryDy=0;" edge="1" parent="1" target="2ZqJ3YhHnh6G0H8l9F2F-9">
          <mxGeometry width="50" height="50" relative="1" as="geometry">
            <mxPoint x="142" y="391" as="sourcePoint" />
            <mxPoint x="352" y="174" as="targetPoint" />
            <Array as="points">
              <mxPoint x="402" y="344" />
              <mxPoint x="192" y="371" />
            </Array>
          </mxGeometry>
        </mxCell>
        <mxCell id="2ZqJ3YhHnh6G0H8l9F2F-17" value="new object()创建的对象" style="shape=table;startSize=20;container=1;collapsible=0;childLayout=tableLayout;strokeColor=default;fontSize=16;fontColor=light-dark(#FFFFFF,#FFFFFF);" vertex="1" parent="1">
          <mxGeometry y="470" width="180" height="134" as="geometry" />
        </mxCell>
        <mxCell id="2ZqJ3YhHnh6G0H8l9F2F-18" value="" style="shape=tableRow;horizontal=0;startSize=0;swimlaneHead=0;swimlaneBody=0;strokeColor=inherit;top=0;left=0;bottom=0;right=0;collapsible=0;dropTarget=0;fillColor=none;points=[[0,0.5],[1,0.5]];portConstraint=eastwest;fontSize=16;" vertex="1" parent="2ZqJ3YhHnh6G0H8l9F2F-17">
          <mxGeometry y="20" width="180" height="57" as="geometry" />
        </mxCell>
        <mxCell id="2ZqJ3YhHnh6G0H8l9F2F-19" value="&lt;div style=&quot;font-family: Consolas, &amp;quot;Courier New&amp;quot;, monospace; font-size: 14px; line-height: 19px; white-space: pre;&quot;&gt;&lt;span style=&quot;background-color: light-dark(rgb(18, 18, 18), rgb(18, 18, 18));&quot;&gt;__proto__&lt;/span&gt;&lt;/div&gt;" style="shape=partialRectangle;html=1;whiteSpace=wrap;connectable=0;strokeColor=inherit;overflow=hidden;fillColor=none;top=0;left=0;bottom=0;right=0;pointerEvents=1;fontSize=16;fontColor=#1A1A1A;" vertex="1" parent="2ZqJ3YhHnh6G0H8l9F2F-18">
          <mxGeometry width="90" height="57" as="geometry">
            <mxRectangle width="90" height="57" as="alternateBounds" />
          </mxGeometry>
        </mxCell>
        <mxCell id="2ZqJ3YhHnh6G0H8l9F2F-20" value="" style="shape=partialRectangle;html=1;whiteSpace=wrap;connectable=0;strokeColor=inherit;overflow=hidden;fillColor=none;top=0;left=0;bottom=0;right=0;pointerEvents=1;fontSize=16;" vertex="1" parent="2ZqJ3YhHnh6G0H8l9F2F-18">
          <mxGeometry x="90" width="90" height="57" as="geometry">
            <mxRectangle width="90" height="57" as="alternateBounds" />
          </mxGeometry>
        </mxCell>
        <mxCell id="2ZqJ3YhHnh6G0H8l9F2F-22" style="shape=tableRow;horizontal=0;startSize=0;swimlaneHead=0;swimlaneBody=0;strokeColor=inherit;top=0;left=0;bottom=0;right=0;collapsible=0;dropTarget=0;fillColor=none;points=[[0,0.5],[1,0.5]];portConstraint=eastwest;fontSize=16;" vertex="1" parent="2ZqJ3YhHnh6G0H8l9F2F-17">
          <mxGeometry y="77" width="180" height="57" as="geometry" />
        </mxCell>
        <mxCell id="2ZqJ3YhHnh6G0H8l9F2F-23" value="name" style="shape=partialRectangle;html=1;whiteSpace=wrap;connectable=0;strokeColor=inherit;overflow=hidden;fillColor=none;top=0;left=0;bottom=0;right=0;pointerEvents=1;fontSize=16;fontColor=#1A1A1A;" vertex="1" parent="2ZqJ3YhHnh6G0H8l9F2F-22">
          <mxGeometry width="90" height="57" as="geometry">
            <mxRectangle width="90" height="57" as="alternateBounds" />
          </mxGeometry>
        </mxCell>
        <mxCell id="2ZqJ3YhHnh6G0H8l9F2F-24" value="张三" style="shape=partialRectangle;html=1;whiteSpace=wrap;connectable=0;strokeColor=inherit;overflow=hidden;fillColor=none;top=0;left=0;bottom=0;right=0;pointerEvents=1;fontSize=16;" vertex="1" parent="2ZqJ3YhHnh6G0H8l9F2F-22">
          <mxGeometry x="90" width="90" height="57" as="geometry">
            <mxRectangle width="90" height="57" as="alternateBounds" />
          </mxGeometry>
        </mxCell>
        <mxCell id="2ZqJ3YhHnh6G0H8l9F2F-21" value="" style="edgeStyle=elbowEdgeStyle;elbow=horizontal;endArrow=classic;html=1;curved=0;rounded=0;endSize=8;startSize=8;entryX=0.99;entryY=0.851;entryDx=0;entryDy=0;entryPerimeter=0;" edge="1" parent="1">
          <mxGeometry width="50" height="50" relative="1" as="geometry">
            <mxPoint x="144" y="518.5" as="sourcePoint" />
            <mxPoint x="367.0999999999999" y="149.99699999999996" as="targetPoint" />
            <Array as="points">
              <mxPoint x="431" y="340" />
              <mxPoint x="166" y="381" />
            </Array>
          </mxGeometry>
        </mxCell>
        <mxCell id="2ZqJ3YhHnh6G0H8l9F2F-28" value="" style="edgeStyle=elbowEdgeStyle;elbow=horizontal;endArrow=classic;html=1;curved=0;rounded=0;endSize=8;startSize=8;entryX=1;entryY=0.13;entryDx=0;entryDy=0;entryPerimeter=0;" edge="1" parent="1" target="2ZqJ3YhHnh6G0H8l9F2F-1">
          <mxGeometry width="50" height="50" relative="1" as="geometry">
            <mxPoint x="260" y="130" as="sourcePoint" />
            <mxPoint x="450" y="490" as="targetPoint" />
            <Array as="points">
              <mxPoint x="537" y="380" />
              <mxPoint x="272" y="421" />
            </Array>
          </mxGeometry>
        </mxCell>
        <mxCell id="2ZqJ3YhHnh6G0H8l9F2F-34" value="new object()创建的对象" style="shape=table;startSize=20;container=1;collapsible=0;childLayout=tableLayout;strokeColor=default;fontSize=16;fontColor=light-dark(#FFFFFF,#FFFFFF);" vertex="1" parent="1">
          <mxGeometry y="650" width="180" height="134" as="geometry" />
        </mxCell>
        <mxCell id="2ZqJ3YhHnh6G0H8l9F2F-35" value="" style="shape=tableRow;horizontal=0;startSize=0;swimlaneHead=0;swimlaneBody=0;strokeColor=inherit;top=0;left=0;bottom=0;right=0;collapsible=0;dropTarget=0;fillColor=none;points=[[0,0.5],[1,0.5]];portConstraint=eastwest;fontSize=16;" vertex="1" parent="2ZqJ3YhHnh6G0H8l9F2F-34">
          <mxGeometry y="20" width="180" height="57" as="geometry" />
        </mxCell>
        <mxCell id="2ZqJ3YhHnh6G0H8l9F2F-36" value="&lt;div style=&quot;font-family: Consolas, &amp;quot;Courier New&amp;quot;, monospace; font-size: 14px; line-height: 19px; white-space: pre;&quot;&gt;&lt;span style=&quot;background-color: light-dark(rgb(18, 18, 18), rgb(18, 18, 18));&quot;&gt;__proto__&lt;/span&gt;&lt;/div&gt;" style="shape=partialRectangle;html=1;whiteSpace=wrap;connectable=0;strokeColor=inherit;overflow=hidden;fillColor=none;top=0;left=0;bottom=0;right=0;pointerEvents=1;fontSize=16;fontColor=#1A1A1A;" vertex="1" parent="2ZqJ3YhHnh6G0H8l9F2F-35">
          <mxGeometry width="90" height="57" as="geometry">
            <mxRectangle width="90" height="57" as="alternateBounds" />
          </mxGeometry>
        </mxCell>
        <mxCell id="2ZqJ3YhHnh6G0H8l9F2F-37" value="" style="shape=partialRectangle;html=1;whiteSpace=wrap;connectable=0;strokeColor=inherit;overflow=hidden;fillColor=none;top=0;left=0;bottom=0;right=0;pointerEvents=1;fontSize=16;" vertex="1" parent="2ZqJ3YhHnh6G0H8l9F2F-35">
          <mxGeometry x="90" width="90" height="57" as="geometry">
            <mxRectangle width="90" height="57" as="alternateBounds" />
          </mxGeometry>
        </mxCell>
        <mxCell id="2ZqJ3YhHnh6G0H8l9F2F-38" style="shape=tableRow;horizontal=0;startSize=0;swimlaneHead=0;swimlaneBody=0;strokeColor=inherit;top=0;left=0;bottom=0;right=0;collapsible=0;dropTarget=0;fillColor=none;points=[[0,0.5],[1,0.5]];portConstraint=eastwest;fontSize=16;" vertex="1" parent="2ZqJ3YhHnh6G0H8l9F2F-34">
          <mxGeometry y="77" width="180" height="57" as="geometry" />
        </mxCell>
        <mxCell id="2ZqJ3YhHnh6G0H8l9F2F-39" value="name" style="shape=partialRectangle;html=1;whiteSpace=wrap;connectable=0;strokeColor=inherit;overflow=hidden;fillColor=none;top=0;left=0;bottom=0;right=0;pointerEvents=1;fontSize=16;fontColor=#1A1A1A;" vertex="1" parent="2ZqJ3YhHnh6G0H8l9F2F-38">
          <mxGeometry width="90" height="57" as="geometry">
            <mxRectangle width="90" height="57" as="alternateBounds" />
          </mxGeometry>
        </mxCell>
        <mxCell id="2ZqJ3YhHnh6G0H8l9F2F-40" value="张三" style="shape=partialRectangle;html=1;whiteSpace=wrap;connectable=0;strokeColor=inherit;overflow=hidden;fillColor=none;top=0;left=0;bottom=0;right=0;pointerEvents=1;fontSize=16;" vertex="1" parent="2ZqJ3YhHnh6G0H8l9F2F-38">
          <mxGeometry x="90" width="90" height="57" as="geometry">
            <mxRectangle width="90" height="57" as="alternateBounds" />
          </mxGeometry>
        </mxCell>
        <mxCell id="2ZqJ3YhHnh6G0H8l9F2F-41" value="" style="edgeStyle=elbowEdgeStyle;elbow=horizontal;endArrow=classic;html=1;curved=0;rounded=0;endSize=8;startSize=8;entryX=0.983;entryY=0.123;entryDx=0;entryDy=0;entryPerimeter=0;" edge="1" parent="1">
          <mxGeometry width="50" height="50" relative="1" as="geometry">
            <mxPoint x="131" y="701" as="sourcePoint" />
            <mxPoint x="177.94000000000005" y="554.011" as="targetPoint" />
            <Array as="points">
              <mxPoint x="391" y="654" />
              <mxPoint x="181" y="681" />
            </Array>
          </mxGeometry>
        </mxCell>
      </root>
    </mxGraphModel>
  </diagram>
</mxfile>
